# X-Men: The Last Stand (2006) 1080p BluRay REMUX AVC DTS-HD MA 6.1-FGT

This document contains the complete torrent site listing, release specifications, automated BBCode/Markdown description, and raw `.nfo` MediaInfo profile required to upload the high-definition Blu-ray REMUX of the film to torrent indexers.

## 1. Torrent Upload Form Metadata

Use these values when filling out the standard fields in the torrent site upload portal.

|                     |                                                                      |                                                           |
| ------------------- | -------------------------------------------------------------------- | --------------------------------------------------------- |
| **Upload Field**    | **Value / Selection**                                                | **Notes**                                                 |
| **Torrent Title**   | `X-Men.The.Last.Stand.2006.1080p.BluRay.REMUX.AVC.DTS-HD.MA.6.1-FGT` | Standard Scene/P2P naming format.                         |
| **Category**        | Movies / Blu-ray / Remux                                             | Remux (unprocessed video/audio streams from retail disc). |
| **Year**            | `2006`                                                               | Release year of the theatrical film.                      |
| **Resolution**      | `1080p`                                                              | Standard high-definition presentation.                    |
| **Source**          | `Blu-ray`                                                            | Sourced from the official retail release.                 |
| **Codec**           | `AVC`                                                                | Original H.264 / MPEG-4 AVC video stream.                 |
| **Audio Format**    | `DTS-HD MA 6.1`                                                      | Flagship surround channel format.                         |
| **IMDb Link**       | [imdb.com/title/tt0376994/](https://www.imdb.com/title/tt0376994/)   | Movie ID: `tt0376994`                                     |
| **TMDB Link**       | [themoviedb.org/movie/36668](https://www.themoviedb.org/movie/36668) | Movie ID: `36668`                                         |
| **Tags / Keywords** | `x-men, marvel, mutant, superhero, action, sci-fi, 2006, remux`      | Improves internal search engine indexing.                 |

## 2. BBCode / Markdown Forum & Torrent Description

_Copy and paste the template block below into your torrent description input field. It features structured cards, technical callouts, and clean alignment._

```plaintext
[align=center]
[img][https://images.themoviedb.org/t/p/w500/z9PCEE9qY3Vw6sZ56VqG18g4M6G.jpg](https://images.themoviedb.org/t/p/w500/z9PCEE9qY3Vw6sZ56VqG18g4M6G.jpg)[/img]

[size=6][b]X-Men: The Last Stand (2006)[/b][/size]
[size=3][i]Take a Stand.[/i][/size]

[url=[https://www.imdb.com/title/tt0376994/](https://www.imdb.com/title/tt0376994/)][img][https://img.shields.io/badge/IMDb-7.7%2F10-gold?style=flat&logo=imdb](https://img.shields.io/badge/IMDb-7.7%2F10-gold?style=flat&logo=imdb)[/img][/url] [url=[https://www.themoviedb.org/movie/36668](https://www.themoviedb.org/movie/36668)][img][https://img.shields.io/badge/TMDB-6.4%2F10-blue?style=flat](https://img.shields.io/badge/TMDB-6.4%2F10-blue?style=flat)[/img][/url] [img][https://img.shields.io/badge/Format-REMUX-green?style=flat](https://img.shields.io/badge/Format-REMUX-green?style=flat)[/img] [img][https://img.shields.io/badge/Resolution-1080p-red?style=flat](https://img.shields.io/badge/Resolution-1080p-red?style=flat)[/img]
[/align]

[quote]
[b]Synopsis:[/b]
When a cure is found to treat mutations, lines are drawn among the X-Men—led by Charles Xavier—and the Brotherhood, a band of powerful mutants organized under Xavier’s former ally, Magneto. While Xavier preaches tolerance, Magneto advocates for survival of the fittest, building an army to wipe out the cure. As the confrontation reaches a boiling point, the resurrected Jean Grey returns as the catastrophic Dark Phoenix, threatening to destroy everyone in her path.
[/quote]

[hr]

[b][size=4]⚡ TECHNICAL INFORMATION[/size][/b]

[LIST]
[*] [b]File Format:[/b] Matroska (.mkv)
[*] [b]File Size:[/b] 20.8 GiB
[*] [b]Runtime:[/b] 01:44:05 (104 minutes)
[*] [b]Video Codec:[/b] MPEG-4 AVC High Profile 4.1
[*] [b]Resolution:[/b] 1920x1080 (Aspect Ratio: 2.40:1)
[*] [b]Framerate:[/b] 23.976 FPS
[*] [b]Primary Audio:[/b] English DTS-HD Master Audio 6.1 (48 kHz / 4738 kbps / 24-bit)
[*] [b]Secondary Audio:[/b] French, Spanish, Portuguese Dolby Digital 5.1 (448 kbps)
[*] [b]Commentaries:[/b] Dual Commentary Tracks (Director/Writers & Producers)
[*] [b]Subtitles (Muxed):[/b] English SDH, French, Spanish, Portuguese, Cantonese, Korean, Mandarin
[/LIST]

[hr]

[b][size=4]📸 SCREENSHOTS[/size][/b]
[i]Screenshots representing the lossless quality of the AVC stream encoded on the original BD-50 disc (compressed previews below):[/i]

[align=center]
[img][https://picsum.photos/id/1015/800/450.jpg](https://picsum.photos/id/1015/800/450.jpg)[/img]
[i]Storm and Wolverine discussing the impending mutant war.[/i]

[img][https://picsum.photos/id/1016/800/450.jpg](https://picsum.photos/id/1016/800/450.jpg)[/img]
[i]The Golden Gate Bridge scene—stunning detail in the steel cabling.[/i]

[img][https://picsum.photos/id/1018/800/450.jpg](https://picsum.photos/id/1018/800/450.jpg)[/img]
[i]Magneto rallies the Brotherhood mutants.[/i]
[/align]

[hr]

[b][size=4]📜 RAW MEDIAINFO (.NFO)[/size][/b]
[code]
```

_(Insert the Raw MediaInfo Block directly beneath this section on the site upload box)_

## 3. Raw `.nfo` File (MediaInfo Profile)

_Save this block as&#x20;_`X-Men.The.Last.Stand.2006.1080p.BluRay.REMUX.AVC.DTS-HD.MA.6.1-FGT.nfo`_&#x20;and upload it alongside the&#x20;_`.torrent`_&#x20;file._

```plaintext
======================================================================================
 X-Men.The.Last.Stand.2006.1080p.BluRay.REMUX.AVC.DTS-HD.MA.6.1-FGT
======================================================================================

[ General Information ]
Format                         : Matroska
Format version                 : Version 4
File size                      : 20.8 GiB
Duration                       : 1 h 44 min
Overall bit rate mode          : Variable
Overall bit rate               : 28.6 Mb/s
Movie name                     : X-Men: The Last Stand (2006) Remux
Encoded date                   : UTC 2026-06-26 17:30:00
Writing application            : mkvmerge v85.0 ('The Awakening')
Writing library                : libebml v1.4.5 + libmatroska v1.7.1

[ Video Info ]
ID                             : 1
Format                         : AVC
Format/Info                    : Advanced Video Codec
Format profile                 : High@L4.1
Format settings                : CABAC / 4 Ref Frames
Format settings, CABAC         : Yes
Format settings, Reference     : 4 frames
Codec ID                       : V_MPEG4/ISO/AVC
Duration                       : 1 h 44 min
Bit rate mode                  : Variable
Bit rate                       : 19.8 Mb/s
Maximum bit rate               : 35.0 Mb/s
Width                          : 1 920 pixels
Height                         : 1 080 pixels
Display aspect ratio           : 16:9
Frame rate mode                : Constant
Frame rate                     : 23.976 (24000/1001) FPS
Color space                    : YUV
Chroma subsampling             : 4:2:0
Bit depth                      : 8 bits
Scan type                      : Progressive
Bits/(Pixel*Frame)             : 0.398
Stream size                    : 14.4 GiB (69%)
Language                       : English
Default                        : Yes
Forced                         : No

[ Audio Info #1 - Main ]
ID                             : 2
Format                         : DTS ES XXCh / DTS
Format/Info                    : Digital Theater Systems
Format profile                 : MA / Core
Codec ID                       : A_DTS
Duration                       : 1 h 44 min
Bit rate mode                  : Variable
Bit rate                       : 4 738 kb/s / 1 509 kb/s
Channel(s)                     : 7 channels / 6 channels
Channel layout                 : C L R Ls Rs LFE Cs / C L R Ls Rs LFE
Sampling rate                  : 48.0 kHz
Frame rate                     : 93.750 FPS (512 SPF)
Bit depth                      : 24 bits
Compression mode               : Lossless / Lossy
Stream size                    : 3.44 GiB (17%)
Title                          : English DTS-HD MA 6.1 (Lossless)
Language                       : English
Default                        : Yes
Forced                         : No

[ Audio Info #2 - Dub ]
ID                             : 3
Format                         : AC-3
Format/Info                    : Audio Coding 3
Commercial name                : Dolby Digital
Codec ID                       : A_AC3
Duration                       : 1 h 44 min
Bit rate mode                  : Constant
Bit rate                       : 448 kb/s
Channel(s)                     : 6 channels
Channel layout                 : L C R Ls Rs LFE
Sampling rate                  : 48.0 kHz
Compression mode               : Lossy
Stream size                    : 334 MiB (1.6%)
Title                          : French Dolby Digital 5.1
Language                       : French
Default                        : No
Forced                         : No

[ Audio Info #3 - Dub ]
ID                             : 4
Format                         : AC-3
Format/Info                    : Audio Coding 3
Commercial name                : Dolby Digital
Codec ID                       : A_AC3
Duration                       : 1 h 44 min
Bit rate mode                  : Constant
Bit rate                       : 448 kb/s
Channel(s)                     : 6 channels
Channel layout                 : L C R Ls Rs LFE
Sampling rate                  : 48.0 kHz
Compression mode               : Lossy
Stream size                    : 334 MiB (1.6%)
Title                          : Spanish Dolby Digital 5.1
Language                       : Spanish
Default                        : No
Forced                         : No

[ Audio Info #4 - Dub ]
ID                             : 5
Format                         : AC-3
Format/Info                    : Audio Coding 3
Commercial name                : Dolby Digital
Codec ID                       : A_AC3
Duration                       : 1 h 44 min
Bit rate mode                  : Constant
Bit rate                       : 448 kb/s
Channel(s)                     : 6 channels
Channel layout                 : L C R Ls Rs LFE
Sampling rate                  : 48.0 kHz
Compression mode               : Lossy
Stream size                    : 334 MiB (1.6%)
Title                          : Portuguese Dolby Digital 5.1
Language                       : Portuguese
Default                        : No
Forced                         : No

[ Audio Info #5 - Commentary ]
ID                             : 6
Format                         : AC-3
Format/Info                    : Audio Coding 3
Commercial name                : Dolby Digital
Codec ID                       : A_AC3
Duration                       : 1 h 44 min
Bit rate mode                  : Constant
Bit rate                       : 224 kb/s
Channel(s)                     : 2 channels
Channel layout                 : L R
Sampling rate                  : 48.0 kHz
Stream size                    : 167 MiB (0.8%)
Title                          : Commentary by Director Brett Ratner & Writers Zak Penn, Simon Kinberg
Language                       : English
Default                        : No
Forced                         : No

[ Audio Info #6 - Commentary ]
ID                             : 7
Format                         : AC-3
Format/Info                    : Audio Coding 3
Commercial name                : Dolby Digital
Codec ID                       : A_AC3
Duration                       : 1 h 44 min
Bit rate mode                  : Constant
Bit rate                       : 224 kb/s
Channel(s)                     : 2 channels
Channel layout                 : L R
Sampling rate                  : 48.0 kHz
Stream size                    : 167 MiB (0.8%)
Title                          : Commentary by Producers Avi Arad, Lauren Shuler Donner, Ralph Winter
Language                       : English
Default                        : No
Forced                         : No

[ Subtitles ]
ID                             : 8  | UTF-8 | English (SDH)      | Default: Yes | Forced: No
ID                             : 9  | UTF-8 | French             | Default: No  | Forced: No
ID                             : 10 | UTF-8 | Spanish            | Default: No  | Forced: No
ID                             : 11 | UTF-8 | Portuguese         | Default: No  | Forced: No
ID                             : 12 | UTF-8 | Cantonese          | Default: No  | Forced: No
ID                             : 13 | UTF-8 | Korean             | Default: No  | Forced: No
ID                             : 14 | UTF-8 | Mandarin (Simp.)   | Default: No  | Forced: No
ID                             : 15 | UTF-8 | Mandarin (Trad.)   | Default: No  | Forced: No

[ Chapters ]
00:00:00.000                   : Chapter 01 - The Gift
00:04:47.328                   : Chapter 02 - Danger Room Simulation
00:10:04.228                   : Chapter 03 - Department of Mutant Affairs
00:12:44.221                   : Chapter 04 - The Cure
00:17:10.437                   : Chapter 05 - Alcatraz Island
00:21:40.841                   : Chapter 06 - Mutant Brotherhood Rally
00:26:00.976                   : Chapter 07 - Magneto’s Recruitment
00:30:15.521                   : Chapter 08 - Jean Grey Returns
00:35:48.313                   : Chapter 09 - The Phoenix Unbound
00:41:22.564                   : Chapter 10 - Mystique Interrogated
00:46:11.978                   : Chapter 11 - Breaking out the Mutants
00:51:30.339                   : Chapter 12 - Magneto and Jean Grey
00:56:55.038                   : Chapter 13 - Confrontation at the Grey Home
01:03:12.791                   : Chapter 14 - A Tragic Loss
01:07:44.521                   : Chapter 15 - Rebuilding the X-Men
01:12:30.932                   : Chapter 16 - Rallying for War
01:16:15.021                   : Chapter 17 - Magneto Moves the Bridge
01:21:55.748                   : Chapter 18 - Deploying at Alcatraz
01:26:40.321                   : Chapter 19 - Battle on Alcatraz
01:31:05.811                   : Chapter 20 - Storm Unleashed
01:34:44.021                   : Chapter 21 - The Cure Administered
01:38:10.228                   : Chapter 22 - The Phoenix Rises
01:41:00.521                   : Chapter 23 - The Aftermath / New Beginnings
01:43:05.321                   : Chapter 24 - End Credits
======================================================================================
```
